<?xml version="1.0" encoding="utf-8"?>
<!-- Generator: Adobe Illustrator 26.0.3, SVG Export Plug-In . SVG Version: 6.00 Build 0)  -->
<svg version="1.1" id="Layer_1" xmlns="http://www.w3.org/2000/svg" xmlns:xlink="http://www.w3.org/1999/xlink" x="0px" y="0px"
	 viewBox="0 0 465.5 465.5" style="enable-background:new 0 0 465.5 465.5;" xml:space="preserve">
<style type="text/css">
	.st0{fill:#636166;}
	.st1{fill:#73B324;}
	.st2{fill:#F75446;}
	.st3{fill:#949299;}
</style>
<g>
	<path class="st0" d="M92.4,363.7c-51,0-92.4-41.5-92.4-92.4s41.5-92.4,92.4-92.4s92.4,41.5,92.4,92.4S143.4,363.7,92.4,363.7z
		 M92.4,199.8c-39.4,0-71.4,32-71.4,71.4s32,71.4,71.4,71.4s71.4-32,71.4-71.4S131.8,199.8,92.4,199.8z"/>
	<path class="st0" d="M373.1,363.7c-51,0-92.4-41.5-92.4-92.4s41.5-92.4,92.4-92.4s92.4,41.5,92.4,92.4S424,363.7,373.1,363.7z
		 M373.1,199.8c-39.4,0-71.4,32-71.4,71.4s32,71.4,71.4,71.4s71.4-32,71.4-71.4S412.5,199.8,373.1,199.8z"/>
	<path class="st1" d="M380.6,271.3c0,2.7-1.5,5.3-4.1,6.7c-3.7,1.9-8.2,0.5-10.1-3.2l-56.7-110l-56.4,88.1l-12.6-8.1l55.8-87.1
		H182.7l44.1,86.3l-13.4,6.8l-43.6-85.5l-61.3,94.9L95.9,252l66-102.2l-18.9-37l13.4-6.8l18.7,36.7h123.2l-15.4-29.8
		c-1.6-3-0.9-6.8,1.8-9.2c1.4-1.2,3.2-1.8,5-1.8h47.6l7.1,0.5c13.1,0,24,10,24.2,23.1c0.2,13.4-11.1,24.4-24.6,24.4h-8.3
		c-2.1,0-4-0.8-5.3-2.2c-1.4-1.4-2.2-3.2-2.2-5.3c0-4.1,3.4-7.5,7.5-7.5h8.8c5.2,0,9.4-4.4,9-9.6c-0.3-4.8-4.5-8.9-9.3-8.9l-7,0.5
		h-35.5l77.8,151C380.3,268.9,380.6,270.1,380.6,271.3z"/>
	<path class="st2" d="M182.7,116.8h-55.1c-4.1,0-7.5-3.4-7.5-7.5s3.4-7.5,7.5-7.5h55.1c4.1,0,7.5,3.4,7.5,7.5
		S186.9,116.8,182.7,116.8z"/>
	<path class="st3" d="M92.4,260.7c-3.9,0-7.2-3.1-7.5-7c-0.3-4.1,2.9-7.7,7-8l139.9-8.8c4.2-0.3,7.7,2.9,8,7c0.3,4.1-2.9,7.7-7,8
		l-139.9,8.8C92.7,260.7,92.6,260.7,92.4,260.7z"/>
	<path class="st3" d="M232.3,305.6c-0.2,0-0.3,0-0.5,0l-139.9-8.8c-4.1-0.3-7.3-3.8-7-8c0.3-4.1,3.8-7.3,8-7l139.9,8.8
		c4.1,0.3,7.3,3.8,7,8C239.6,302.6,236.3,305.6,232.3,305.6z"/>
	<path class="st2" d="M368.8,125.5c0.2,13.4-11.5,24.6-24.9,24.6h-8.1c-2.1,0-4-0.8-5.3-2.2c-1.4-1.4-2.3-3.4-2.3-5.5
		c0-4.1,3.7-7.6,7.8-7.6h8.8c5.2,0,8.9-4.1,8.6-9.3c-0.3-4.8-4.2-8.6-9-8.6h-7v-15h7.3C358.4,101.8,368.6,112.4,368.8,125.5z"/>
	<path class="st2" d="M232.3,305.6c-19,0-34.4-15.4-34.4-34.4c0-19,15.4-34.4,34.4-34.4s34.4,15.4,34.4,34.4
		S251.3,305.6,232.3,305.6z M232.3,251.9c-10.7,0-19.4,8.7-19.4,19.4c0,10.7,8.7,19.4,19.4,19.4s19.4-8.7,19.4-19.4
		C251.7,260.6,243,251.9,232.3,251.9z"/>
	<path class="st2" d="M92.4,296.9c-14.1,0-25.6-11.5-25.6-25.6s11.5-25.6,25.6-25.6s25.6,11.5,25.6,25.6S106.5,296.9,92.4,296.9z
		 M92.4,260.7c-5.8,0-10.6,4.8-10.6,10.6s4.8,10.6,10.6,10.6s10.6-4.8,10.6-10.6S98.3,260.7,92.4,260.7z"/>
	<path class="st1" d="M219.3,321.1c-0.7,0-1.5-0.1-2.2-0.3c-4-1.2-6.2-5.4-5-9.4l13-42.3c1.2-4,5.4-6.2,9.4-5c4,1.2,6.2,5.4,5,9.4
		l-13,42.4C225.5,319,222.5,321.1,219.3,321.1z"/>
</g>
</svg>
